<?xml version="1.0" encoding="utf-8"?>
<!-- Generator: Adobe Illustrator 23.0.0, SVG Export Plug-In . SVG Version: 6.00 Build 0)  -->
<svg version="1.1" id="Layer_1" xmlns="http://www.w3.org/2000/svg" xmlns:xlink="http://www.w3.org/1999/xlink" x="0px" y="0px"
	 viewBox="0 0 100 100" style="enable-background:new 0 0 100 100;" xml:space="preserve">
<style type="text/css">
	.st0{fill:#009FFF;}
	.st1{opacity:0.11;fill:#FFFFFF;}
	.st2{fill:none;stroke:#FFFFFF;stroke-width:3;stroke-linecap:round;}
	.st3{fill:#FFFFFF;}
</style>
<path class="st0" d="M50,100L50,100C22.5,100,0,77.5,0,50L0,0l50,0c27.5,0,50,22.5,50,50v0C100,77.5,77.5,100,50,100z"/>
<path class="st1" d="M50,0H14v30c0,27.5,22.5,50,50,50h0c12.49,0,23.95-4.65,32.73-12.3C98.84,62.19,100,56.23,100,50v0
	C100,22.5,77.5,0,50,0z"/>
<path class="st1" d="M63,91c0-27.5-22.5-50-50-50h0c-4.49,0-8.85,0.61-13,1.74V50c0,27.5,22.5,50,50,50h0c4.49,0,8.85-0.61,13-1.74
	V91z"/>
<g>
	<path id="Ellipse_995_copy_2_" class="st2" d="M11,78.37c9.74-21.6,34.68-31.64,56.89-22.51c9.74,3.95,17.64,10.95,22.21,20.38"/>
	<g>
		<path class="st3" d="M50.55,16c7.91,0,14.34,6.43,14.34,14.34s-6.43,14.34-14.34,14.34s-14.34-6.43-14.34-14.34S42.64,16,50.55,16
			 M50.55,13c-9.57,0-17.34,7.76-17.34,17.34s7.76,17.34,17.34,17.34s17.34-7.76,17.34-17.34S60.12,13,50.55,13L50.55,13z"/>
	</g>
</g>
</svg>
